<?xml version="1.0" encoding="UTF-8"?>
<svg xmlns="http://www.w3.org/2000/svg" xmlns:xlink="http://www.w3.org/1999/xlink" width="34pt" height="27pt" viewBox="0 0 34 27" version="1.1">
<g id="surface1">
<path style=" stroke:none;fill-rule:evenodd;fill:rgb(0%,0%,0%);fill-opacity:1;" d="M 4.335938 0.0351562 C 2.433594 0.0585938 2.371094 0.0625 2.15625 0.140625 C 0.972656 0.5625 0.167969 1.554688 0.0585938 2.726562 C 0 3.34375 0 23.695312 0.0585938 24.3125 C 0.160156 25.378906 0.773438 26.207031 1.890625 26.777344 L 2.308594 26.992188 L 14.882812 27.015625 C 28.90625 27.042969 31.386719 27.023438 31.796875 26.890625 C 33.003906 26.5 33.835938 25.484375 33.941406 24.277344 C 34 23.609375 34 3.429688 33.941406 2.765625 C 33.84375 1.628906 33.25 0.828125 32.058594 0.214844 L 31.699219 0.03125 L 19 0.0195312 C 12.011719 0.0117188 5.414062 0.0195312 4.335938 0.0351562 M 27.957031 3.207031 C 28.785156 3.222656 29.367188 3.246094 29.386719 3.269531 C 29.511719 3.398438 24.867188 8.277344 22.535156 10.46875 C 19.886719 12.949219 17.824219 14.445312 17.042969 14.445312 C 16.234375 14.445312 14.515625 13.257812 12.003906 10.96875 C 9.539062 8.71875 4.429688 3.382812 4.621094 3.257812 C 4.730469 3.1875 24.691406 3.140625 27.957031 3.207031 M 3.542969 6.925781 C 4.835938 8.34375 8.335938 11.933594 9.171875 12.695312 C 9.394531 12.898438 9.574219 13.074219 9.574219 13.085938 C 9.574219 13.097656 9.386719 13.324219 9.15625 13.589844 C 7.605469 15.363281 5.929688 17.460938 3.902344 20.152344 L 3.140625 21.167969 L 3.117188 17.527344 C 3.085938 11.820312 3.085938 6.492188 3.117188 6.492188 C 3.132812 6.492188 3.324219 6.6875 3.542969 6.925781 M 30.871094 13.839844 C 30.875 17.710938 30.863281 20.941406 30.847656 21.011719 L 30.824219 21.140625 L 30.148438 20.226562 C 28.503906 18.007812 26.164062 15.078125 24.863281 13.609375 C 24.621094 13.335938 24.425781 13.101562 24.425781 13.089844 C 24.425781 13.074219 24.640625 12.867188 24.902344 12.621094 C 25.988281 11.613281 30.222656 7.253906 30.675781 6.675781 L 30.824219 6.484375 L 30.847656 6.640625 C 30.863281 6.722656 30.871094 9.964844 30.871094 13.839844 M 12.855469 15.773438 C 14.914062 17.199219 16.347656 17.8125 17.285156 17.664062 C 18.398438 17.484375 19.539062 16.902344 21.554688 15.484375 C 22.011719 15.164062 22 15.164062 22.367188 15.5625 C 23.589844 16.890625 27.824219 22.257812 28.71875 23.613281 L 28.828125 23.777344 L 28.4375 23.800781 C 27.523438 23.855469 5.085938 23.875 5.117188 23.820312 C 5.132812 23.792969 5.367188 23.472656 5.632812 23.109375 C 7.546875 20.511719 9.914062 17.535156 11.71875 15.449219 C 11.996094 15.128906 11.886719 15.097656 12.855469 15.773438 "/>
</g>
</svg>
